<?xml version="1.0" encoding="iso-8859-1"?>
<!-- Generator: Adobe Illustrator 22.1.0, SVG Export Plug-In . SVG Version: 6.00 Build 0)  -->
<svg xmlns="http://www.w3.org/2000/svg" xmlns:xlink="http://www.w3.org/1999/xlink" version="1.1" id="Layer_1" x="0px" y="0px" viewBox="0 0 100 100" style="enable-background:new 0 0 100 100;" xml:space="preserve" width="50px" height="50px">
<path style="fill:#EDBC94;" d="M59,67.5c0.069,1.426,0.101,3.477,0.227,4.135c0.069,0.334,0.252,0.758,0.734,0.88l11.56,3.912  c1.445,0.39,2.81,1.003,3.979,1.805l-0.47-0.312C79.984,81.074,81,86,81,88c0,1.5-0.484,2-1,2H58h-4.5H21c-0.516,0-1-0.5-1-2  c0-2,1.016-6.926,5.97-10.08c0.998-0.635,2.202-1.148,3.544-1.504l11.445-3.878c0.573-0.145,0.745-0.557,0.803-0.88  C41.899,70.933,41.943,68.96,42,67.5"/>
<path style="fill:#00AC9C;" d="M81,88c0,1.5-0.48,2-1,2H21c-0.52,0-1-0.5-1-2c0-2,1.02-6.93,5.97-10.08c1-0.64,2.2-1.15,3.54-1.5  l8.14-2.75C39,73,39.542,74.706,41,75.055C43.793,75.724,47.537,76,50.5,76c2.143,0,4.695-0.145,7-0.478  C60.046,75.155,62,73,63.35,73.67l8.17,2.76c1.27,0.34,2.47,0.85,3.53,1.51c0.1,0.06,0.2,0.13,0.3,0.19l0.13,0.09  C80.04,81.38,81,86.06,81,88z"/>
<path style="fill:#F6CCA4;" d="M68.323,58.185c0.45-0.922,0.654-1.95,0.654-2.697C68.989,54.329,69,54.17,69,53  c0.86-0.39,1.179-1.012,1.535-2.093C70.776,50.16,72.698,45,72.698,45c0.619-1.85,0.172-2.998-0.321-3.633  C72.193,41.122,71,40,71,40v-6.5C71,22.178,61.822,13,50.5,13S30,22.178,30,33.5V40c0,0-1.187,0.979-1.37,1.213  c-0.493,0.635-0.94,1.794-0.344,3.566c0,0,1.664,5.047,2.019,6.128C30.695,52.122,30.979,52.666,32,53  c0,0.869,0.052,0.839,0.006,1.73c-0.069,1.694,0.476,3.223,1.468,4.77C37,65,47,70,50.5,70S65,65,68.323,58.185z"/>
<path style="fill:none;stroke:#1F212B;stroke-width:2;stroke-linejoin:round;stroke-miterlimit:10;" d="M59,67.5  c0.069,1.426,0.101,3.477,0.227,4.135c0.069,0.334,0.252,0.758,0.734,0.88l11.56,3.912c1.445,0.39,2.81,1.003,3.979,1.805  l-0.47-0.312C79.984,81.074,81,86,81,88c0,1.5-0.484,2-1,2H58h-4.5H21c-0.516,0-1-0.5-1-2c0-2,1.016-6.926,5.97-10.08  c0.998-0.635,2.202-1.148,3.544-1.504l11.445-3.878c0.573-0.145,0.745-0.557,0.803-0.88C41.899,70.933,41.943,68.96,42,67.5"/>
<path style="fill:none;stroke:#1F212B;stroke-width:2;stroke-linejoin:round;stroke-miterlimit:10;" d="M68.323,58.185  c0.45-0.922,0.654-1.95,0.654-2.697C68.989,54.329,69,54.17,69,53c0.86-0.39,1.179-1.012,1.535-2.093  C70.776,50.16,72.698,45,72.698,45c0.619-1.85,0.172-2.998-0.321-3.633C72.193,41.122,71,40,71,40v-6.5C71,22.178,61.822,13,50.5,13  S30,22.178,30,33.5V40c0,0-1.187,0.979-1.37,1.213c-0.493,0.635-0.94,1.794-0.344,3.566c0,0,1.664,5.047,2.019,6.128  C30.695,52.122,30.979,52.666,32,53c0,0.869,0.052,0.839,0.006,1.73c-0.069,1.694,0.476,3.223,1.468,4.77C37,65,47,70,50.5,70  S65,65,68.323,58.185z"/>
<path style="fill:none;stroke:#1F212B;stroke-linecap:round;stroke-linejoin:round;stroke-miterlimit:10;" d="M57.5,75.031  c3.028-0.454,5-1.194,5-2.031"/>
<path style="fill:none;stroke:#1F212B;stroke-linecap:round;stroke-linejoin:round;stroke-miterlimit:10;" d="M38.5,73  c0,1.381,5.373,2.5,12,2.5c1.403,0,2.749-0.05,4-0.142"/>
</svg>
