<?xml version="1.0" standalone="no"?><!DOCTYPE svg PUBLIC "-//W3C//DTD SVG 1.1//EN" "http://www.w3.org/Graphics/SVG/1.1/DTD/svg11.dtd"><svg t="1539058578530" class="icon" style="" viewBox="0 0 1024 1024" version="1.1" xmlns="http://www.w3.org/2000/svg" p-id="6976" xmlns:xlink="http://www.w3.org/1999/xlink" width="200" height="200"><defs><style type="text/css"></style></defs><path d="M507.73504 232.96m-131.41504 0a131.41504 131.41504 0 1 0 262.83008 0 131.41504 131.41504 0 1 0-262.83008 0Z" p-id="6977" fill="#515151"></path><path d="M507.73504 405.33504s133.12 10.24 245.76-80.21504c0 0 100.69504 23.89504 46.08 92.16 0 0-95.56992 75.08992-160.42496 115.2v50.35008s85.32992 97.28 85.32992 153.6l-1.70496 143.36s-49.48992 119.47008-117.76 0l-6.83008-83.63008s13.65504-44.36992-98.98496-44.36992c0 0-81.92-5.12512-85.33504 39.24992l-13.65504 104.11008s-87.04 100.69504-119.46496-13.65504V714.24s30.72512-88.74496 95.57504-124.58496v-55.71584S256.85504 475.30496 209.06496 405.32992c0 0-40.96-58.02496 32.42496-80.21504 0.00512 0.00512 119.4752 80.22016 266.24512 80.22016z" p-id="6978" fill="#515151"></path></svg>