<?xml version="1.0" standalone="no"?><!DOCTYPE svg PUBLIC "-//W3C//DTD SVG 1.1//EN" "http://www.w3.org/Graphics/SVG/1.1/DTD/svg11.dtd"><svg t="1539079169098" class="icon" style="" viewBox="0 0 1024 1024" version="1.1" xmlns="http://www.w3.org/2000/svg" p-id="2989" xmlns:xlink="http://www.w3.org/1999/xlink" width="200" height="200"><defs><style type="text/css"></style></defs><path d="M879.36 768a451.84 451.84 0 0 1-90.56 96H896l96-96zM512 128a384 384 0 1 0 384 384A384 384 0 0 0 512 128zM304 592A80 80 0 1 1 384 512a80 80 0 0 1-80 80zM512 800a80 80 0 1 1 80-80A80 80 0 0 1 512 800z m-32-288a32 32 0 1 1 32 32 32 32 0 0 1-32-32z m32-128a80 80 0 1 1 80-80A80 80 0 0 1 512 384z m208 208A80 80 0 1 1 800 512a80 80 0 0 1-80 80z" p-id="2990" fill="#707070"></path></svg>