<?xml version="1.0" standalone="no"?><!DOCTYPE svg PUBLIC "-//W3C//DTD SVG 1.1//EN" "http://www.w3.org/Graphics/SVG/1.1/DTD/svg11.dtd"><svg t="1538414175080" class="icon" style="" viewBox="0 0 1024 1024" version="1.1" xmlns="http://www.w3.org/2000/svg" p-id="1013" xmlns:xlink="http://www.w3.org/1999/xlink" width="200" height="200"><defs><style type="text/css"></style></defs><path d="M474.129 65.929c-153.213 16.689-277.43 138.728-296.656 291.644-9.901 78.748 7.502 152.922 43.861 214.584 71.595 150.11 214.528 316.671 269.5 377.995 11.882 13.255 32.546 13.347 44.428 0.092 57.923-64.616 213.866-246.527 280.641-402.671 21.381-44.289 33.37-93.963 33.37-146.439-0.001-198.748-171.909-357.343-375.144-335.205z m67.511 504.399c-117.27 14.78-215.888-83.842-201.106-201.11 10.072-79.901 74.595-144.422 154.497-154.491 117.266-14.777 215.881 83.839 201.103 201.106-10.07 79.902-74.592 144.425-154.494 154.495z" p-id="1014" fill="#F1BB3D"></path></svg>