<?xml version="1.0" standalone="no"?><!DOCTYPE svg PUBLIC "-//W3C//DTD SVG 1.1//EN" "http://www.w3.org/Graphics/SVG/1.1/DTD/svg11.dtd"><svg t="1538941446435" class="icon" style="" viewBox="0 0 1292 1024" version="1.1" xmlns="http://www.w3.org/2000/svg" p-id="5209" xmlns:xlink="http://www.w3.org/1999/xlink" width="252.34375" height="200"><defs><style type="text/css"></style></defs><path d="M233.501188 1016.703088v-68.104513c0-24.32304-17.026128-43.781473-41.349169-43.781473-12.16152 0-26.755344 4.864608-36.484561 19.458432-7.296912-12.16152-19.458432-19.458432-34.052256-19.458432-12.16152 0-21.890736 2.432304-31.619953 17.026128v-12.16152h-24.32304v107.021378h24.32304v-58.375297c0-19.458432 9.729216-29.187648 26.755345-29.187648 14.593824 0 24.32304 9.729216 24.32304 29.187648v58.375297h24.323041v-58.375297c0-19.458432 12.16152-29.187648 26.755344-29.187648 17.026128 0 24.32304 9.729216 24.32304 29.187648v58.375297h17.026129z m345.387173-107.021378h-36.484561V878.061758h-24.32304v31.619952h-21.890736v21.890737h21.890736v48.64608c0 24.32304 9.729216 38.916865 36.484561 38.916865 9.729216 0 21.890736-2.432304 29.187648-7.296912l-7.296912-19.458432c-7.296912 4.864608-14.593824 7.296912-19.458432 7.296912-12.16152 0-14.593824-7.296912-14.593825-19.458433v-48.64608h36.484561v-21.890737z m194.584323-2.432304c-12.16152 0-21.890736 7.296912-29.187648 14.593824v-12.16152h-24.323041v107.021378h24.323041v-60.807601c0-17.026128 7.296912-26.755344 21.890736-26.755344 4.864608 0 9.729216 0 14.593824 2.432304l7.296912-21.890737c-2.432304-2.432304-9.729216-2.432304-14.593824-2.432304z m-294.308789 9.729216c-12.16152-7.296912-26.755344-12.16152-43.781472-12.16152-26.755344 0-43.781473 12.16152-43.781473 34.052257 0 17.026128 12.16152 29.187648 36.484561 31.619952l9.729216 4.864608c12.16152 2.432304 17.026128 4.864608 17.026128 12.16152s-7.296912 12.16152-24.32304 12.161521-26.755344-4.864608-34.052257-12.161521l-12.16152 19.458433c12.16152 9.729216 29.187648 14.593824 46.213777 14.593824 29.187648 0 48.646081-14.593824 48.64608-34.052257 0-19.458432-14.593824-29.187648-36.48456-31.619952l-12.16152-2.432304c-9.729216 0-17.026128-2.432304-17.026129-9.729216 0-7.296912 7.296912-12.16152 19.458433-12.16152s26.755344 4.864608 34.052256 9.729216l12.16152-24.323041z m615.372922-9.729216c-12.16152 0-21.890736 7.296912-29.187648 14.593824v-12.16152h-24.323041v107.021378h24.323041v-60.807601c0-17.026128 7.296912-26.755344 21.890736-26.755344 4.864608 0 9.729216 0 14.593824 2.432304l7.296912-21.890737c-2.432304-2.432304-9.729216-2.432304-14.593824-2.432304z m-296.741093 55.942993c0 31.619952 21.890736 55.942993 55.942993 55.942993 17.026128 0 26.755344-4.864608 38.916865-12.16152l-12.16152-19.458433c-9.729216 7.296912-17.026128 9.729216-26.755345 9.729217-17.026128 0-31.619952-12.16152-31.619952-34.052257 0-19.458432 12.16152-34.052257 31.619952-34.052256 9.729216 0 19.458432 2.432304 26.755345 9.729216l12.16152-19.458433c-12.16152-9.729216-21.890736-12.16152-38.916865-12.16152-34.052257 0-55.942993 21.890736-55.942993 55.942993z m216.47506 0v-53.510689h-24.323041v12.16152c-7.296912-9.729216-17.026128-14.593824-34.052256-14.593824-29.187648 0-53.510689 24.32304-53.510689 55.942993 0 31.619952 24.32304 55.942993 53.510689 55.942993 14.593824 0 26.755344-7.296912 34.052256-14.593824v12.16152h24.323041v-53.510689z m-87.562946 0c0-19.458432 12.16152-34.052257 31.619953-34.052256s31.619952 14.593824 31.619952 34.052256-12.16152 34.052257-31.619952 34.052257-31.619952-17.026128-31.619953-34.052257z m-277.28266-55.942993c-31.619952 0-53.510689 21.890736-53.510689 55.942993s21.890736 55.942993 53.510689 55.942993c17.026128 0 29.187648-4.864608 43.781473-14.593824l-12.16152-17.026129c-9.729216 7.296912-19.458432 12.16152-31.619953 12.161521-14.593824 0-29.187648-7.296912-31.619952-26.755345h77.833729v-9.729216c4.864608-34.052257-17.026128-55.942993-46.213777-55.942993z m0 19.458432c14.593824 0 24.32304 9.729216 26.755345 26.755345h-53.510689c2.432304-17.026128 9.729216-26.755344 26.755344-26.755345z m576.456057 36.484561v-97.292161h-24.32304v55.942992c-7.296912-9.729216-17.026128-14.593824-34.052257-14.593824-29.187648 0-53.510689 24.32304-53.510689 55.942993 0 31.619952 24.32304 55.942993 53.510689 55.942993 14.593824 0 26.755344-7.296912 34.052257-14.593824v12.16152h24.32304v-53.510689z m-85.130641 0c0-19.458432 12.16152-34.052257 31.619952-34.052256s31.619952 14.593824 31.619953 34.052256-12.16152 34.052257-31.619953 34.052257-31.619952-17.026128-31.619952-34.052257z m-775.904988 0v-53.510689h-24.323041v12.16152c-7.296912-9.729216-17.026128-14.593824-34.052256-14.593824-29.187648 0-53.510689 24.32304-53.510689 55.942993 0 31.619952 24.32304 55.942993 53.510689 55.942993 14.593824 0 26.755344-7.296912 34.052256-14.593824v12.16152h24.323041v-53.510689z m-85.130642 0c0-19.458432 12.16152-34.052257 31.619953-34.052256s31.619952 14.593824 31.619952 34.052256-12.16152 34.052257-31.619952 34.052257-31.619952-17.026128-31.619953-34.052257zM1264.7981 999.67696h4.864608c2.432304 0 2.432304 0 2.432304 2.432304l2.432304 2.432304v9.729216c0 2.432304 0 2.432304-2.432304 2.432304l-2.432304 2.432304h-9.729216s-2.432304 0-2.432304-2.432304l-2.432304-2.432304v-4.864608-4.864608s0-2.432304 2.432304-2.432304l2.432304-2.432304h4.864608z m0 19.458432h2.432304s2.432304 0 2.432304-2.432304c0 0 0-2.432304 2.432304-2.432304v-2.432304-2.432304s0-2.432304-2.432304-2.432304c0 0-2.432304 0-2.432304-2.432304H1264.7981h-2.432304s-2.432304 0-2.432304 2.432304 0 2.432304-2.432304 2.432304v4.864608s0 2.432304 2.432304 2.432304 2.432304 0 2.432304 2.432304h2.432304z m0-12.16152h2.432304v4.864608c0 2.432304 0 0-2.432304 0l2.432304 4.864608H1264.7981v-4.864608 4.864608h-2.432304v-9.729216h2.432304z m0 0v2.432304-2.432304z" fill="" p-id="5210"></path><path d="M469.434679 92.427553h347.819478v634.831354H469.434679z" fill="#FF5F00" p-id="5211"></path><path d="M491.325416 408.627078c0-128.912114 58.375297-243.230404 153.235154-318.631829C576.456057 36.484561 491.325416 2.432304 398.897862 2.432304 177.558195 4.864608 0 184.855107 0 408.627078s177.558195 403.76247 398.897862 403.762471c92.427553 0 177.558195-31.619952 245.662708-87.562946-92.427553-72.969121-153.235154-187.287411-153.235154-316.199525z" fill="#EB001B" p-id="5212"></path><path d="M1289.12114 408.627078c0 223.771971-177.558195 403.76247-398.897862 403.762471-92.427553 0-177.558195-31.619952-245.662708-87.562946 92.427553-72.969121 153.235154-189.719715 153.235154-318.631829s-58.375297-243.230404-153.235154-318.631829c68.104513-53.510689 153.235154-87.562945 245.662708-87.562945C1111.562945 4.864608 1289.12114 184.855107 1289.12114 408.627078zM1250.204276 659.154394v-12.16152h4.864608v-2.432304h-12.161521v2.432304h4.864608v12.16152h2.432305z m26.755344 0v-14.593824h-4.864608l-4.864608 12.16152-4.864608-12.16152h-4.864608v14.593824h2.432304v-12.16152l4.864608 9.729216h2.432304l4.864608-9.729216v12.16152h4.864608z" fill="#F79E1B" p-id="5213"></path></svg>