<?xml version="1.0" standalone="no"?><!DOCTYPE svg PUBLIC "-//W3C//DTD SVG 1.1//EN" "http://www.w3.org/Graphics/SVG/1.1/DTD/svg11.dtd"><svg t="1538941418415" class="icon" style="" viewBox="0 0 2900 1024" version="1.1" xmlns="http://www.w3.org/2000/svg" p-id="2140" xmlns:xlink="http://www.w3.org/1999/xlink" width="566.40625" height="200"><defs><style type="text/css"></style></defs><path d="M1084.906957 326.2976h-160.5632a22.3232 22.3232 0 0 0-22.016 18.8416l-64.9216 411.648a13.3632 13.3632 0 0 0 13.2608 15.36h76.8a22.3232 22.3232 0 0 0 22.016-18.8416l17.5104-111.0016a22.272 22.272 0 0 1 22.016-18.8416H1039.594957c105.728 0 166.7584-51.2 182.6816-152.576 7.168-44.3392 0.3072-79.2064-20.48-103.6288-22.7328-26.7776-63.1808-40.96-116.8896-40.96z m18.5344 150.3232c-8.7552 57.6-52.7872 57.6-95.3344 57.6h-24.2176l16.9984-107.52a13.3632 13.3632 0 0 1 13.1072-11.3664h11.1104c28.9792 0 56.32 0 70.4512 16.5376 8.4992 9.8816 11.0592 24.5248 7.8336 44.7488zM1564.702157 474.7776h-76.8a13.4144 13.4144 0 0 0-13.1072 11.264l-3.3792 21.504-5.12-7.7824c-16.64-24.1664-53.76-32.2048-90.7776-32.2048-84.9408 0-157.4912 64.3584-171.6224 154.5728-7.3216 45.0048 3.1232 88.064 28.6208 118.0672 23.4496 27.5968 56.9344 39.1168 96.8192 39.1168a147.0976 147.0976 0 0 0 106.3936-44.032l-3.4304 21.3504a13.3632 13.3632 0 0 0 13.2096 15.36h69.2224a22.3232 22.3232 0 0 0 22.016-18.8416l41.5232-263.1168a13.312 13.312 0 0 0-13.568-15.2576z m-107.1616 149.6064a85.6576 85.6576 0 0 1-86.7328 73.4208c-22.3232 0-40.1408-7.168-51.6096-20.48s-15.6672-32.6656-12.0832-54.016a86.0672 86.0672 0 0 1 86.1184-73.984c21.8112 0 39.5776 7.2704 51.2 20.9408a66.56 66.56 0 0 1 13.1584 54.1184zM1974.097357 474.7776h-77.2096a22.3744 22.3744 0 0 0-18.4832 9.7792L1771.754957 641.4848l-45.056-150.784a22.3744 22.3744 0 0 0-21.504-15.9232h-75.8272a13.3632 13.3632 0 0 0-12.6976 17.7152L1701.764557 742.4l-79.9744 112.64a13.3632 13.3632 0 0 0 10.9056 21.1456h77.1584a22.272 22.272 0 0 0 18.3296-9.5744l256.9216-370.8416a13.3632 13.3632 0 0 0-11.008-20.992z" fill="#253B80" p-id="2141"></path><path d="M2229.892557 326.2976h-160.5632a22.272 22.272 0 0 0-22.016 18.8416l-64.9216 411.648a13.3632 13.3632 0 0 0 13.2096 15.36h82.3808a15.36 15.36 0 0 0 15.36-13.2096l18.432-116.6848a22.272 22.272 0 0 1 22.016-18.8416h50.7904c105.7792 0 166.7584-51.2 182.7328-152.576 7.2192-44.3392 0.3072-79.2064-20.48-103.6288-22.784-26.7264-63.0784-40.9088-116.9408-40.9088z m18.5344 150.3232c-8.7552 57.6-52.7872 57.6-95.3344 57.6h-24.2176l16.9984-107.52a13.312 13.312 0 0 1 13.2096-11.3152h11.1104c28.9792 0 56.32 0 70.4512 16.5376 8.3968 9.8304 10.9568 24.4736 7.7312 44.6976zM2709.687757 474.7776h-76.8a13.312 13.312 0 0 0-13.2096 11.3152l-3.3792 21.504-5.376-7.7824c-16.64-24.1664-53.7088-32.2048-90.7776-32.2048-84.9408 0-157.4912 64.3584-171.6224 154.5728-7.3216 45.0048 3.072 88.064 28.6208 118.0672 23.4496 27.5968 56.9344 39.1168 96.8192 39.1168a147.0976 147.0976 0 0 0 106.3936-44.032l-3.4304 21.3504a13.3632 13.3632 0 0 0 13.2608 15.36h69.2224a22.272 22.272 0 0 0 22.016-18.8416l41.5744-263.1168a13.4144 13.4144 0 0 0-13.312-15.3088z m-107.1616 149.6064a85.6576 85.6576 0 0 1-86.7328 73.4208c-22.272 0-40.1408-7.168-51.6096-20.48s-15.616-32.6656-12.0832-54.016a86.0672 86.0672 0 0 1 86.1184-73.984c21.8112 0 39.5776 7.2704 51.2 20.9408a66.2016 66.2016 0 0 1 13.1072 54.1184zM2800.311757 337.5616L2734.314957 756.736a13.3632 13.3632 0 0 0 13.2096 15.36h66.2528a22.272 22.272 0 0 0 22.016-18.8416l64.9728-411.5968a13.3632 13.3632 0 0 0-13.2096-15.36h-74.0352a13.4144 13.4144 0 0 0-13.2096 11.264z" fill="#179BD7" p-id="2142"></path><path d="M170.782157 852.1728l12.288-77.9776-27.3408-0.6144H25.118157L115.895757 198.1952a7.5776 7.5776 0 0 1 2.56-4.5056 7.424 7.424 0 0 1 4.8128-1.792H343.274957c73.1136 0 123.5456 15.36 149.8624 45.2096A103.1168 103.1168 0 0 1 517.354957 282.112a162.4576 162.4576 0 0 1 0 62.0544l-0.3072 1.792v15.872l12.4928 6.8096a86.6304 86.6304 0 0 1 24.9856 19.0464 88.7296 88.7296 0 0 1 20.48 45.4656 192.4096 192.4096 0 0 1-2.8672 65.9968 232.448 232.448 0 0 1-27.0336 74.7008A153.6 153.6 0 0 1 501.994957 621.056a173.7728 173.7728 0 0 1-57.7024 26.0096A287.6928 287.6928 0 0 1 372.254157 655.36h-17.152a51.5584 51.5584 0 0 0-51.2 43.4688l-1.28 7.0144-21.7088 137.4208-0.9728 5.12a4.352 4.352 0 0 1-1.3824 2.9184 3.6352 3.6352 0 0 1-2.2528 0.8192z" fill="#253B80" p-id="2143"></path><path d="M541.214157 347.8528q-0.9728 6.2976-2.2528 12.9024c-29.0304 149.0944-128.3584 200.5504-255.232 200.5504H219.114957a31.3856 31.3856 0 0 0-31.0272 26.5728l-33.0752 209.92-9.3184 59.2896a16.5376 16.5376 0 0 0 16.3328 19.0976H276.714957a27.5456 27.5456 0 0 0 27.2384-23.2448l1.1264-5.8368 21.5552-136.9088 1.3824-7.5264a27.5456 27.5456 0 0 1 27.2384-23.296h17.152c111.0016 0 197.888-45.056 223.2832-175.4624 10.5984-54.4768 5.12-99.9424-22.9376-131.9424a109.568 109.568 0 0 0-31.5392-24.1152z" fill="#179BD7" p-id="2144"></path><path d="M510.852557 335.7184q-6.656-1.9456-13.7216-3.5328t-14.5408-2.7648a358.7584 358.7584 0 0 0-56.9344-4.1472h-172.544a27.4944 27.4944 0 0 0-27.1872 23.296l-36.7616 232.4992-1.0752 6.7584a31.3856 31.3856 0 0 1 31.0272-26.5728h64.6144c126.8736 0 226.2016-51.5072 255.232-200.5504 0.8704-4.4032 1.5872-8.704 2.2528-12.9024A154.7776 154.7776 0 0 0 517.354957 337.92z" fill="#222D65" p-id="2145"></path><path d="M225.873357 348.5696a27.5456 27.5456 0 0 1 27.1872-23.2448h172.544a358.7584 358.7584 0 0 1 56.9344 4.1472q7.4752 1.1776 14.5408 2.7648t13.7216 3.5328L517.354957 337.92a157.0816 157.0816 0 0 1 23.8592 10.24c8.6528-55.0912 0-92.6208-29.8496-126.5664-32.8192-37.376-92.16-53.4016-167.936-53.4016H123.114957A31.488 31.488 0 0 0 92.394957 194.56L0.234957 775.7312a18.8928 18.8928 0 0 0 18.6368 21.8624h136.192l34.1504-216.5248z" fill="#253B80" p-id="2146"></path></svg>