<?xml version="1.0" standalone="no"?><!DOCTYPE svg PUBLIC "-//W3C//DTD SVG 1.1//EN" "http://www.w3.org/Graphics/SVG/1.1/DTD/svg11.dtd"><svg t="1539272304154" class="icon" style="" viewBox="0 0 1024 1024" version="1.1" xmlns="http://www.w3.org/2000/svg" p-id="1987" xmlns:xlink="http://www.w3.org/1999/xlink" width="200" height="200"><defs><style type="text/css"></style></defs><path d="M844.52407 416.737c-88.536-147.435-197.868-238.09-331.213-238.09-131.984 0-246.293 91.505-331.213 238.09C97.15807 563.323 29.15307 680.673 29.15307 680.673-34.78493 830.68 46.31607 953.426 209.40807 953.426h607.805c163.062 0 244.183-122.747 180.255-272.763 0 0.01-64.41-116.49-152.944-263.926zM513.30007 684.227c-114.872 0-207.994-93.103-207.994-207.985 0-114.883 93.122-207.985 207.994-207.985 114.893 0 208.006 93.102 208.006 207.985 0 114.893-93.113 207.985-208.006 207.985zM52.11107 407.685c38.206 23.706 83.62-8.5 91.597-29.399 52.357-136.99 181.146-236.943 336.67-245.596v0.082a410.435 410.435 0 0 1 63.868-0.02c155.218 8.939 283.77 108.738 336.046 245.544 7.977 20.9 53.391 53.105 91.597 29.4 45.179-28.068 79.728-129.967 21.094-213.494-40.366-57.539-199.588-121.938-444.508-122.727v-0.061a772.906 772.906 0 0 0-71.926 0v0.051c-245.545 0.604-405.094 65.137-445.542 122.747-58.635 83.507-24.075 185.426 21.104 213.473z m0 0" p-id="1988" fill="#515151"></path></svg>