<?xml version="1.0" standalone="no"?><!DOCTYPE svg PUBLIC "-//W3C//DTD SVG 1.1//EN" "http://www.w3.org/Graphics/SVG/1.1/DTD/svg11.dtd"><svg t="1539058364058" class="icon" style="" viewBox="0 0 1024 1024" version="1.1" xmlns="http://www.w3.org/2000/svg" p-id="2244" xmlns:xlink="http://www.w3.org/1999/xlink" width="200" height="200"><defs><style type="text/css"></style></defs><path d="M240.436 410.755c-71.41 22.476-137.319 79.896-161.823 147.184L10.546 744.846c-31.507 86.518 17.507 157.312 109.771 157.312h781.765c92.11 0 142.836-71.047 112.957-158.688l-62.785-184.155c-26.69-78.285-108.123-143.004-190.837-156.22-6.336 16.745-14.467 34.55-24.386 53.4 66.966 3.122 140.812 57.442 162.407 120.782l62.785 184.156c17.563 51.516-6.293 84.999-60.141 84.999H120.317c-53.311 0-75.688-32.146-57.337-82.538l68.066-186.907c19.288-52.964 75.99-99.882 133.698-115.3-9.283-17.224-17.52-34.303-24.308-50.933z" fill="#515151" p-id="2245"></path><path d="M499.12 122c-120.822 0-219.15 98.207-219.15 218.88 0 116.5 196.442 323.398 204.797 332.17a19.943 19.943 0 0 0 14.46 6.205h0.428c5.57 0 10.925-2.567 14.567-6.846l68.016-77.774c90.401-110.51 136.138-195.88 136.138-253.648C718.376 220.207 620.048 122 499.12 122z m0 318.37c-55.055 0-99.614-44.503-99.614-99.49 0-54.988 44.559-99.491 99.614-99.491 55.055 0 99.613 44.503 99.613 99.49 0 54.988-44.558 99.492-99.613 99.492z" fill="#515151" p-id="2246"></path></svg>