<?xml version="1.0" standalone="no"?><!DOCTYPE svg PUBLIC "-//W3C//DTD SVG 1.1//EN" "http://www.w3.org/Graphics/SVG/1.1/DTD/svg11.dtd"><svg t="1539095592183" class="icon" style="" viewBox="0 0 1717 1024" version="1.1" xmlns="http://www.w3.org/2000/svg" p-id="2689" xmlns:xlink="http://www.w3.org/1999/xlink" width="335.3515625" height="200"><defs><style type="text/css"></style></defs><path d="M860 116a430.026667 430.026667 0 1 0 429.973333 430.026667 430.08 430.08 0 0 0-429.973333-430.026667z m0 0" fill="#38B7A6" p-id="2690"></path><path d="M101.333333 799.626667l225.973334-225.973334a18.88 18.88 0 0 1 26.666666 26.666667L128 826.293333a18.88 18.88 0 1 1-26.666667-26.666666z m0 0" fill="#F5B317" p-id="2691"></path><path d="M0 635.626667l132.533333-71.52-14.293333 116.32z m0 0" fill="#4FA0D9" p-id="2692"></path><path d="M1256.586667 42.666667a41.973333 41.973333 0 0 0 83.946666 0 41.973333 41.973333 0 0 0-83.946666 0z m0 0" fill="#38B7A6" p-id="2693"></path><path d="M429.066667 88.373333l94.346666-36.266666-36.213333 94.4-94.4 36.266666z m0 58.133334L390.933333 54.026667l92.48 38.133333 38.133334 92.48z m0 0" fill="#F5B317" p-id="2694"></path><path d="M1440.64 917.866667l101.066667-39.093334-39.093334 101.066667-101.066666 39.093333z m0 62.88l-41.013333-100.106667 100.106666 41.013333 41.013334 100.106667z m0 0" fill="#38B7A6" p-id="2695"></path><path d="M1373.866667 571.733333l230.72-230.72a17.653333 17.653333 0 0 1 23.84 0 18.613333 18.613333 0 0 1 0 23.84l-230.72 230.72a17.653333 17.653333 0 0 1-23.84 0 18.72 18.72 0 0 1 0-23.84z m0 0" fill="#4FA0D9" p-id="2696"></path><path d="M1341.493333 704.266667l346.08-346.08a17.653333 17.653333 0 0 1 23.84 0 18.72 18.72 0 0 1 0 23.84L1365.333333 728.106667a17.546667 17.546667 0 0 1-23.786666 0 16.64 16.64 0 0 1 0-23.84z m0 0" fill="#F5C44F" p-id="2697"></path><path d="M1059.253333 476.426667l-230.72 239.306666a12.8 12.8 0 0 1-19.093333 0L672 573.653333a13.813333 13.813333 0 0 1 0-20l42.666667-44.853333a12.8 12.8 0 0 1 19.093333 0l83.893333 87.733333 178.293334-184.96a12.8 12.8 0 0 1 19.093333 0l42.666667 44.8a14.826667 14.826667 0 0 1 0.96 20.053334z m0 0" fill="#FFFFFF" p-id="2698"></path></svg>