<?xml version="1.0" standalone="no"?><!DOCTYPE svg PUBLIC "-//W3C//DTD SVG 1.1//EN" "http://www.w3.org/Graphics/SVG/1.1/DTD/svg11.dtd"><svg t="1538414713388" class="icon" style="" viewBox="0 0 1024 1024" version="1.1" xmlns="http://www.w3.org/2000/svg" p-id="1555" xmlns:xlink="http://www.w3.org/1999/xlink" width="200" height="200"><defs><style type="text/css"></style></defs><path d="M492.544 49.152C248.793088 49.152 51.2 246.745088 51.2 490.496c0 243.749888 197.593088 441.344 441.344 441.344 243.749888 0 441.344-197.594112 441.344-441.344C933.888 246.745088 736.293888 49.152 492.544 49.152zM572.787712 530.618368c0 22.156288-17.964032 40.121344-40.121344 40.121344L291.933184 570.739712c-22.157312 0-40.123392-17.965056-40.123392-40.121344 0-22.158336 17.965056-40.123392 40.123392-40.123392L492.544 490.494976 492.544 289.88416c0-22.156288 17.965056-40.122368 40.123392-40.122368 22.157312 0 40.121344 17.965056 40.121344 40.122368L572.788736 530.618368z" p-id="1556" fill="#515151"></path></svg>