<?xml version="1.0" standalone="no"?><!DOCTYPE svg PUBLIC "-//W3C//DTD SVG 1.1//EN" "http://www.w3.org/Graphics/SVG/1.1/DTD/svg11.dtd"><svg t="1538944224243" class="icon" style="" viewBox="0 0 1385 1024" version="1.1" xmlns="http://www.w3.org/2000/svg" p-id="6964" xmlns:xlink="http://www.w3.org/1999/xlink" width="270.5078125" height="200"><defs><style type="text/css"></style></defs><path d="M0 0m26.32315 0l1158.21858 0q26.32315 0 26.32315 26.32315l0 842.340786q0 26.32315-26.32315 26.323149l-1158.21858 0q-26.32315 0-26.32315-26.323149l0-842.340786q0-26.32315 26.32315-26.32315Z" fill="#EA802A" p-id="6965"></path><path d="M0 210.585197h1210.86488v263.231495H0z" fill="#ECEBEC" p-id="6966"></path><path d="M368.524094 631.75559H157.938897a26.32315 26.32315 0 0 1 0-52.6463h210.585197a26.32315 26.32315 0 0 1 0 52.6463zM710.725038 631.75559h-210.585196a26.32315 26.32315 0 0 1 0-52.6463h210.585196a26.32315 26.32315 0 0 1 0 52.6463zM1052.925983 631.75559h-210.585197a26.32315 26.32315 0 0 1 0-52.6463h210.585197a26.32315 26.32315 0 0 1 0 52.6463zM263.231496 737.048188H157.938897a26.32315 26.32315 0 0 1 0-52.646299h105.292599a26.32315 26.32315 0 0 1 0 52.646299z" fill="#AE6820" p-id="6967"></path></svg>