<?xml version="1.0" encoding="utf-8"?>
<!-- Generator: Adobe Illustrator 22.1.0, SVG Export Plug-In . SVG Version: 6.00 Build 0)  -->
<svg version="1.1" id="Layer_1" xmlns="http://www.w3.org/2000/svg" xmlns:xlink="http://www.w3.org/1999/xlink" x="0px" y="0px"
	 viewBox="0 0 200 200" style="enable-background:new 0 0 200 200;" xml:space="preserve">
<style type="text/css">
	.st0{fill:#FFD000;}
	.st1{fill:#FFFFFF;}
	.st2{fill:#FF9900;}
</style>
<path class="st0" d="M17.9,105.2c0,44.4,36,80.4,80.4,80.4s80.4-36,80.4-80.4s-36-80.4-80.4-80.4S17.9,60.8,17.9,105.2z"/>
<path class="st0" d="M160.5,14.5c-2.7-0.6-5.4,1.1-6.1,3.8c0,0,0,0.1,0,0.1l-2.8,10.4c-0.6,2.8,1.2,5.5,4,6c2.8,0.6,5.5-1.2,6-4
	l2.8-10.4C164.9,17.7,163.2,15.1,160.5,14.5z M181.2,32.8c-1.7-2.2-4.8-2.7-7.1-1.1l-8.7,6.4c-2.4,1.5-3.1,4.6-1.6,7
	c1.5,2.4,4.6,3.1,7,1.6c0.2-0.1,0.4-0.3,0.6-0.4l8.7-6.5C182.4,38.1,182.8,35,181.2,32.8z M189.9,59.2c0.1-2.8-2-5.1-4.8-5.3
	l-8.4-1.7c-2.8,0.3-4.8,2.8-4.5,5.6c0.2,2.2,1.9,4,4,4.4l8.4,1.7C187.4,64,189.7,61.9,189.9,59.2z"/>
<path class="st1" d="M98.3,128.6c-4.9,0-8.8,3.9-8.8,8.8s3.9,8.8,8.8,8.8c4.9,0,8.8-3.9,8.8-8.8S103.1,128.6,98.3,128.6L98.3,128.6z
	 M98,121.7c4.2,0,7.6-3.4,7.6-7.6l0,0V78.7c0-4.2-3.4-7.6-7.6-7.6s-7.6,3.4-7.6,7.6l0,0v35.4C90.4,118.3,93.8,121.7,98,121.7
	C98,121.7,98,121.7,98,121.7L98,121.7z"/>
<path class="st2" d="M33,173.4c-2.2-1.8-5.3-1.5-7.1,0.7l-6.5,5.7c-1.4,2.4-0.6,5.5,1.8,6.9c1.9,1.1,4.3,0.9,5.9-0.6l6.5-5.7
	C35.4,178.3,35.1,175.1,33,173.4z"/>
<path class="st2" d="M28.7,164.5c0-2.8-2.3-5-5.1-5l-8.5-1.4c-2.8,0.4-4.6,3-4.2,5.8c0.3,2.2,2,3.9,4.2,4.2l8.5,1.4
	C26.4,169.5,28.6,167.3,28.7,164.5z"/>
</svg>
