<?xml version="1.0" encoding="utf-8"?>
<!-- Generator: Adobe Illustrator 22.1.0, SVG Export Plug-In . SVG Version: 6.00 Build 0)  -->
<svg version="1.1" id="Layer_1" xmlns="http://www.w3.org/2000/svg" xmlns:xlink="http://www.w3.org/1999/xlink" x="0px" y="0px"
	 viewBox="0 0 373.4 200" style="enable-background:new 0 0 373.4 200;" xml:space="preserve">
<style type="text/css">
	.st0{fill:#FFFFFF;}
</style>
<path class="st0" d="M353.3,0H20C9,0,0,9,0,20v160c0,11,9,20,20,20h333.3c11,0,20-9,20-20V20C373.3,9,364.4,0,353.3,0z M360,173.3
	c0,7.4-6,13.3-13.3,13.3h-320c-7.4,0-13.3-6-13.3-13.3l0-146.7c0-7.4,6-13.3,13.3-13.3h320c7.4,0,13.3,6,13.3,13.3V173.3z M34.5,147
	h17.7V60H34.5L34.5,147z M116.3,118.7c0,0.3-0.1,0.8-0.4,1.7c-0.8,3.9-1.2,6.5-1.2,7.9h-0.4c0-2.2-0.4-5.4-1.2-9.6
	c-0.5-1.7-6-21.2-16.5-58.7l-26.2,0v87h16.1V97c0-6.4-0.3-13.7-0.8-22.1l0.4-0.4c0.3,1.1,0.9,3.5,2,7.1c0.8,3.6,1.3,6.1,1.6,7.5
	c0.8,3.1,6.6,22.3,17.3,57.9h15.3c9.9-34.4,15.3-53.6,16.1-57.4c1.1-3.3,2.3-8.3,3.6-15c-0.5,6.1-0.8,12.6-0.8,19.6V147h17.7V60
	l-27.4,0C122,97.2,116.9,116.8,116.3,118.7z M200.2,60L168,147h19l6.9-20h33.5l6.9,20h19.4l-32.3-87L200.2,60z M197.8,113.3
	c6.7-20,10.2-30.2,10.5-30.8c0.8-2.8,1.5-5.4,2-7.9c0.3,0.8,0.8,2.5,1.6,5c0.3,1.1,0.5,1.9,0.8,2.5c0.3,0.8,3.9,11.2,10.9,31.2
	H197.8z M335.7,60h-20.6c-8.9,16.1-13.9,25.1-14.9,27.1c-2.2,3.9-3.5,6.2-4,7.1c-1.9-2.8-3.1-5.1-3.6-7.1c-0.8-1.4-6-10.4-15.7-27.1
	h-20.6l28.2,43.7L253.5,147h21c11.3-17.8,17.3-27.3,18.1-28.7c0.3-0.3,0.9-1.4,2-3.3c0.5-1.1,0.9-1.8,1.2-2.1
	c1.6,2.5,2.7,4.3,3.2,5.4c0.8,1.1,6.9,10.7,18.1,28.7H339l-31.5-43.3L335.7,60z"/>
</svg>
