<?xml version="1.0" standalone="no"?><!DOCTYPE svg PUBLIC "-//W3C//DTD SVG 1.1//EN" "http://www.w3.org/Graphics/SVG/1.1/DTD/svg11.dtd"><svg t="1538412404245" class="icon" style="" viewBox="0 0 1024 1024" version="1.1" xmlns="http://www.w3.org/2000/svg" p-id="1956" xmlns:xlink="http://www.w3.org/1999/xlink" width="200" height="200"><defs><style type="text/css"></style></defs><path d="M792.256 269.184c-102.656-140.224-274.88-134.848-279.936-134.4C511.232 134.72 509.248 134.72 506.368 134.72c-29.376 0-180.928 6.528-274.496 134.528-49.344 67.392-82.816 186.112 37.44 369.28 29.504 45.12 144.64 195.776 158.592 213.504 12.096 15.744 42.112 54.976 42.176 54.976 6.784 10.368 21.824 22.4 41.92 22.4 20.224 0 35.264-12.096 41.024-20.864 0-0.128 30.656-40.384 43.072-56.384 7.936-10.112 127.68-166.4 158.592-213.632C874.944 455.296 841.472 336.576 792.256 269.184zM512 568.064c-71.488 0-129.664-58.112-129.664-129.728 0-71.488 58.176-129.728 129.664-129.6 71.552 0 129.728 58.112 129.728 129.6C641.728 509.952 583.552 568.064 512 568.064z" p-id="1957" fill="#515151"></path></svg>