<?xml version="1.0" encoding="utf-8"?>
<!-- Generator: Adobe Illustrator 23.0.0, SVG Export Plug-In . SVG Version: 6.00 Build 0)  -->
<svg version="1.1" id="Layer_1" xmlns="http://www.w3.org/2000/svg" xmlns:xlink="http://www.w3.org/1999/xlink" x="0px" y="0px"
	 viewBox="0 0 200 200" style="enable-background:new 0 0 200 200;" xml:space="preserve">
<style type="text/css">
	.st0{fill:#F1B451;}
</style>
<path class="st0" d="M185.2,176.3l-40.4-40.4c11.1-13.1,17.8-29.9,17.8-48.4c0-41.4-33.6-75-75-75s-75,33.6-75,75s33.6,75,75,75
	c18.5,0,35.3-6.7,48.4-17.8l40.4,40.4c2.7,2.7,6.9,3,9.4,0.5C188.1,183.3,187.9,179.1,185.2,176.3z M87.5,150C53,150,25,122,25,87.5
	S53,25,87.5,25S150,53,150,87.5S122,150,87.5,150z"/>
</svg>
