<?xml version="1.0" standalone="no"?><!DOCTYPE svg PUBLIC "-//W3C//DTD SVG 1.1//EN" "http://www.w3.org/Graphics/SVG/1.1/DTD/svg11.dtd"><svg t="1539058499233" class="icon" style="" viewBox="0 0 1024 1024" version="1.1" xmlns="http://www.w3.org/2000/svg" p-id="4619" xmlns:xlink="http://www.w3.org/1999/xlink" width="200" height="200"><defs><style type="text/css"></style></defs><path d="M887.466667 739.555556a56.32 56.32 0 0 1 79.644444 79.644444L779.377778 1006.933333a55.011556 55.011556 0 0 1-79.644445 0l-187.733333-187.733333A56.32 56.32 0 1 1 591.644444 739.555556l91.022223 91.022222V398.222222a56.888889 56.888889 0 0 1 113.777777 0v432.355556z m-455.111111-455.111112L341.333333 193.422222V625.777778a53.76 53.76 0 0 1-56.888889 56.888889 53.76 53.76 0 0 1-56.888888-56.888889V193.422222L136.533333 284.444444A55.011556 55.011556 0 0 1 56.888889 284.444444a55.011556 55.011556 0 0 1 0-79.644444L244.622222 17.066667A55.011556 55.011556 0 0 1 324.266667 17.066667l187.733333 187.733333A56.32 56.32 0 1 1 432.355556 284.444444z" p-id="4620" fill="#515151"></path></svg>