<?xml version="1.0" standalone="no"?><!DOCTYPE svg PUBLIC "-//W3C//DTD SVG 1.1//EN" "http://www.w3.org/Graphics/SVG/1.1/DTD/svg11.dtd"><svg t="1538941428716" class="icon" style="" viewBox="0 0 2162 1024" version="1.1" xmlns="http://www.w3.org/2000/svg" p-id="4797" xmlns:xlink="http://www.w3.org/1999/xlink" width="422.265625" height="200"><defs><style type="text/css"></style></defs><path d="M927.9745997432095 840.4191813530863h-174.23449505185187l108.86549048888888-669.597331911111h174.4001959506173zM607.0119588345676 170.8218494419753L440.81395737283947 631.3874975604939l-19.6355565037037-99.17198791111112-58.658118162962964-301.07853305679004s-7.042288197530865-60.31512715061728-82.68474848395061-60.31512715061728H5.103444069135769L1.872276543209857 182.17236100740746s84.01035567407405 17.481444819753087 182.35383909135803 76.55381522962962l151.45062147160493 581.6930051160493h181.60818504691358l277.3833045333333-669.597331911111h-187.65626785185182zM1978.1868961185187 840.4191813530863h160.0670682074074l-139.52015676049382-669.597331911111h-140.10010990617283c-64.70620096790124 0-80.5306368 49.875970528395065-80.5306368 49.875970528395065l-259.9847101629629 619.7213613827159h181.69103549629625l36.37134727901234-99.42053925925924h221.62495209876542l20.381210548148143 99.42053925925924z m-191.79879032098762-236.78658433580244l91.54974656790122-250.62260938271604 51.53297951604938 250.62260938271604h-143.08272608395063zM1531.788674844445 331.8831230419752l24.85513481481481-143.82838012839505s-76.80236657777779-29.163358182716046-156.75305023209873-29.163358182716046c-86.49586915555555 0-291.9649836246914 37.779804918518515-291.9649836246914 221.62495209876542 0 172.9917383111111 241.17765815308638 175.14584999506172 241.17765815308638 265.94994251851847s-216.3225233382716 74.64825489382716-287.6567602567901 17.315743920987654l-25.93219065679012 150.2907151802469s77.79657197037037 37.86265536790123 196.76981728395057 37.86265536790123c118.89039486419752 0 298.42731867654317-61.64073434074074 298.42731867654317-229.24719344197527 0-174.06879415308643-243.331769837037-190.30748223209875-243.331769837037-266.03279296790123 0-75.64246028641973 169.76057078518517-65.86610725925925 244.40882567901235-24.772284365432096z" fill="#0461A5" p-id="4798"></path><path d="M421.17840086913577 532.2155096493827L362.52028270617285 231.13697659259265s-7.042288197530865-60.31512715061728-82.68474848395061-60.31512715061728H5.103444069135769L1.872276543209857 182.17236100740746s132.0636163160494 27.3406482962963 258.74195342222225 129.90950463209876C381.74158696296314 410.0939472592592 421.17840086913577 532.2155096493827 421.17840086913577 532.2155096493827z" fill="#EF9F38" p-id="4799"></path></svg>